solid OpenSCAD_Model
  facet normal -0.998025 -0.0628106 0
    outer loop
      vertex 22.5 10 0
      vertex 22.4014 11.5667 3
      vertex 22.4014 11.5667 0
    endloop
  endfacet
  facet normal -0.998025 -0.0628106 0
    outer loop
      vertex 22.4014 11.5667 3
      vertex 22.5 10 0
      vertex 22.5 10 3
    endloop
  endfacet
  facet normal 0.125306 -0.992118 0
    outer loop
      vertex 7.65773 22.2786 0
      vertex 9.21512 22.4753 3
      vertex 7.65773 22.2786 3
    endloop
  endfacet
  facet normal 0.125306 -0.992118 0
    outer loop
      vertex 9.21512 22.4753 3
      vertex 7.65773 22.2786 0
      vertex 9.21512 22.4753 0
    endloop
  endfacet
  facet normal -0.684558 -0.728959 0
    outer loop
      vertex 17.9678 19.6314 0
      vertex 19.1121 18.5568 3
      vertex 17.9678 19.6314 3
    endloop
  endfacet
  facet normal -0.684558 -0.728959 -0
    outer loop
      vertex 19.1121 18.5568 3
      vertex 17.9678 19.6314 0
      vertex 19.1121 18.5568 0
    endloop
  endfacet
  facet normal 0.770507 -0.637431 0
    outer loop
      vertex -0.112712 17.3473 3
      vertex 0.887892 18.5568 0
      vertex 0.887892 18.5568 3
    endloop
  endfacet
  facet normal 0.770507 -0.637431 0
    outer loop
      vertex 0.887892 18.5568 0
      vertex -0.112712 17.3473 3
      vertex -0.112712 17.3473 0
    endloop
  endfacet
  facet normal 0.481736 -0.876317 0
    outer loop
      vertex 3.30217 20.5541 0
      vertex 4.67776 21.3103 3
      vertex 3.30217 20.5541 3
    endloop
  endfacet
  facet normal 0.481736 -0.876317 0
    outer loop
      vertex 4.67776 21.3103 3
      vertex 3.30217 20.5541 0
      vertex 4.67776 21.3103 0
    endloop
  endfacet
  facet normal -0.904813 -0.425809 0
    outer loop
      vertex 21.6222 14.6016 0
      vertex 20.9538 16.0219 3
      vertex 20.9538 16.0219 0
    endloop
  endfacet
  facet normal -0.904813 -0.425809 0
    outer loop
      vertex 20.9538 16.0219 3
      vertex 21.6222 14.6016 0
      vertex 21.6222 14.6016 3
    endloop
  endfacet
  facet normal -0.982291 -0.187361 0
    outer loop
      vertex 22.4014 11.5667 0
      vertex 22.1073 13.1086 3
      vertex 22.1073 13.1086 0
    endloop
  endfacet
  facet normal -0.982291 -0.187361 0
    outer loop
      vertex 22.1073 13.1086 3
      vertex 22.4014 11.5667 0
      vertex 22.4014 11.5667 3
    endloop
  endfacet
  facet normal -0.844335 -0.535816 0
    outer loop
      vertex 20.9538 16.0219 0
      vertex 20.1127 17.3473 3
      vertex 20.1127 17.3473 0
    endloop
  endfacet
  facet normal -0.844335 -0.535816 0
    outer loop
      vertex 20.1127 17.3473 3
      vertex 20.9538 16.0219 0
      vertex 20.9538 16.0219 3
    endloop
  endfacet
  facet normal -0.248706 -0.968579 0
    outer loop
      vertex 12.3423 22.2786 0
      vertex 13.8627 21.8882 3
      vertex 12.3423 22.2786 3
    endloop
  endfacet
  facet normal -0.248706 -0.968579 -0
    outer loop
      vertex 13.8627 21.8882 3
      vertex 12.3423 22.2786 0
      vertex 13.8627 21.8882 0
    endloop
  endfacet
  facet normal -0.125305 -0.992118 0
    outer loop
      vertex 10.7849 22.4753 0
      vertex 12.3423 22.2786 3
      vertex 10.7849 22.4753 3
    endloop
  endfacet
  facet normal -0.125305 -0.992118 -0
    outer loop
      vertex 12.3423 22.2786 3
      vertex 10.7849 22.4753 0
      vertex 12.3423 22.2786 0
    endloop
  endfacet
  facet normal -0.481733 -0.876318 0
    outer loop
      vertex 15.3222 21.3103 0
      vertex 16.6978 20.5541 3
      vertex 15.3222 21.3103 3
    endloop
  endfacet
  facet normal -0.481733 -0.876318 -0
    outer loop
      vertex 16.6978 20.5541 3
      vertex 15.3222 21.3103 0
      vertex 16.6978 20.5541 0
    endloop
  endfacet
  facet normal 0.951061 -0.309003 0
    outer loop
      vertex -2.10729 13.1086 3
      vertex -1.62221 14.6016 0
      vertex -1.62221 14.6016 3
    endloop
  endfacet
  facet normal 0.951061 -0.309003 0
    outer loop
      vertex -1.62221 14.6016 0
      vertex -2.10729 13.1086 3
      vertex -2.10729 13.1086 0
    endloop
  endfacet
  facet normal 0 0 -1
    outer loop
      vertex -2.5 9.49292 0
      vertex -2.71819 9.57234 0
      vertex -2.5 10 0
    endloop
  endfacet
  facet normal 0 0 -1
    outer loop
      vertex 24.814 -44.4901 0
      vertex 29.5 -39.5 0
      vertex 26.0451 -44.2553 0
    endloop
  endfacet
  facet normal 0 0 -1
    outer loop
      vertex 24.814 -44.4901 0
      vertex 26.0451 -44.2553 0
      vertex 25.4369 -44.4114 0
    endloop
  endfacet
  facet normal 0 0 -1
    outer loop
      vertex 29.5 -39.5 0
      vertex 24.814 -44.4901 0
      vertex 22.5 -44.4901 0
    endloop
  endfacet
  facet normal -0 0 -1
    outer loop
      vertex 29.5 -39.5 0
      vertex 22.5 -44.4901 0
      vertex 22.5 10 0
    endloop
  endfacet
  facet normal 0 0 -1
    outer loop
      vertex 29.5 -39.5 0
      vertex 22.5 10 0
      vertex 26.25 25 0
    endloop
  endfacet
  facet normal 0 0 -1
    outer loop
      vertex 22.4014 11.5667 0
      vertex 26.25 25 0
      vertex 22.5 10 0
    endloop
  endfacet
  facet normal 0 0 -1
    outer loop
      vertex 22.1073 13.1086 0
      vertex 26.25 25 0
      vertex 22.4014 11.5667 0
    endloop
  endfacet
  facet normal 0 0 -1
    outer loop
      vertex 21.6222 14.6016 0
      vertex 26.25 25 0
      vertex 22.1073 13.1086 0
    endloop
  endfacet
  facet normal 0 0 -1
    outer loop
      vertex 20.9538 16.0219 0
      vertex 26.25 25 0
      vertex 21.6222 14.6016 0
    endloop
  endfacet
  facet normal 0 0 -1
    outer loop
      vertex 20.1127 17.3473 0
      vertex 26.25 25 0
      vertex 20.9538 16.0219 0
    endloop
  endfacet
  facet normal 0 0 -1
    outer loop
      vertex 19.1121 18.5568 0
      vertex 26.25 25 0
      vertex 20.1127 17.3473 0
    endloop
  endfacet
  facet normal 0 0 -1
    outer loop
      vertex 19.1121 18.5568 0
      vertex 18.75 25 0
      vertex 26.25 25 0
    endloop
  endfacet
  facet normal 0 0 -1
    outer loop
      vertex 17.9678 19.6314 0
      vertex 18.75 25 0
      vertex 19.1121 18.5568 0
    endloop
  endfacet
  facet normal 0 0 -1
    outer loop
      vertex 16.6978 20.5541 0
      vertex 18.75 25 0
      vertex 17.9678 19.6314 0
    endloop
  endfacet
  facet normal 0 0 -1
    outer loop
      vertex 15.3222 21.3103 0
      vertex 18.75 25 0
      vertex 16.6978 20.5541 0
    endloop
  endfacet
  facet normal 0 0 -1
    outer loop
      vertex 13.8627 21.8882 0
      vertex 18.75 25 0
      vertex 15.3222 21.3103 0
    endloop
  endfacet
  facet normal 0 0 -1
    outer loop
      vertex 12.3423 22.2786 0
      vertex 18.75 25 0
      vertex 13.8627 21.8882 0
    endloop
  endfacet
  facet normal -0 0 -1
    outer loop
      vertex 18.75 25 0
      vertex 12.3423 22.2786 0
      vertex 18.75 32.5 0
    endloop
  endfacet
  facet normal 0 0 -1
    outer loop
      vertex 10.7849 22.4753 0
      vertex 18.75 32.5 0
      vertex 12.3423 22.2786 0
    endloop
  endfacet
  facet normal 0 0 -1
    outer loop
      vertex 9.21512 22.4753 0
      vertex 18.75 32.5 0
      vertex 10.7849 22.4753 0
    endloop
  endfacet
  facet normal 0 0 -1
    outer loop
      vertex 7.65773 22.2786 0
      vertex 18.75 32.5 0
      vertex 9.21512 22.4753 0
    endloop
  endfacet
  facet normal 0 0 -1
    outer loop
      vertex 6.13729 21.8882 0
      vertex 18.75 32.5 0
      vertex 7.65773 22.2786 0
    endloop
  endfacet
  facet normal 0 0 -1
    outer loop
      vertex 4.67776 21.3103 0
      vertex 18.75 32.5 0
      vertex 6.13729 21.8882 0
    endloop
  endfacet
  facet normal 0 0 -1
    outer loop
      vertex -29.5 32.5 0
      vertex 4.67776 21.3103 0
      vertex 3.30217 20.5541 0
    endloop
  endfacet
  facet normal 0 0 -1
    outer loop
      vertex -29.5 32.5 0
      vertex 3.30217 20.5541 0
      vertex 2.0322 19.6314 0
    endloop
  endfacet
  facet normal 0 0 -1
    outer loop
      vertex -2.71819 9.57234 0
      vertex -2.40143 11.5667 0
      vertex -2.5 10 0
    endloop
  endfacet
  facet normal 0 0 -1
    outer loop
      vertex -29.5 -39.5 0
      vertex -2.71819 9.57234 0
      vertex -22.3953 -44.4901 0
    endloop
  endfacet
  facet normal 0 0 -1
    outer loop
      vertex -29.5 32.5 0
      vertex -2.71819 9.57234 0
      vertex -29.5 -39.5 0
    endloop
  endfacet
  facet normal 0 0 -1
    outer loop
      vertex -2.71819 9.57234 0
      vertex -29.5 32.5 0
      vertex -2.40143 11.5667 0
    endloop
  endfacet
  facet normal 0 0 -1
    outer loop
      vertex -29.5 -39.5 0
      vertex -22.3953 -44.4901 0
      vertex -24.814 -44.4901 0
    endloop
  endfacet
  facet normal 0 0 -1
    outer loop
      vertex -29.5 -39.5 0
      vertex -24.814 -44.4901 0
      vertex -25.4369 -44.4114 0
    endloop
  endfacet
  facet normal 0 0 -1
    outer loop
      vertex -29.5 -39.5 0
      vertex -25.4369 -44.4114 0
      vertex -26.0451 -44.2553 0
    endloop
  endfacet
  facet normal 0 0 -1
    outer loop
      vertex -29.5 -39.5 0
      vertex -26.0451 -44.2553 0
      vertex -26.6289 -44.0241 0
    endloop
  endfacet
  facet normal 0 0 -1
    outer loop
      vertex -29.5 -39.5 0
      vertex -26.6289 -44.0241 0
      vertex -27.1791 -43.7216 0
    endloop
  endfacet
  facet normal 0 0 -1
    outer loop
      vertex -29.5 -39.5 0
      vertex -27.1791 -43.7216 0
      vertex -27.6871 -43.3526 0
    endloop
  endfacet
  facet normal 0 0 -1
    outer loop
      vertex -29.5 -39.5 0
      vertex -27.6871 -43.3526 0
      vertex -28.1448 -42.9227 0
    endloop
  endfacet
  facet normal 0 0 -1
    outer loop
      vertex -29.5 -39.5 0
      vertex -28.1448 -42.9227 0
      vertex -28.5451 -42.4389 0
    endloop
  endfacet
  facet normal 0 0 -1
    outer loop
      vertex -2.40143 11.5667 0
      vertex -29.5 32.5 0
      vertex -2.10729 13.1086 0
    endloop
  endfacet
  facet normal 0 0 -1
    outer loop
      vertex -29.5 -39.5 0
      vertex -28.5451 -42.4389 0
      vertex -28.8815 -41.9088 0
    endloop
  endfacet
  facet normal 0 0 -1
    outer loop
      vertex -29.5 -39.5 0
      vertex -28.8815 -41.9088 0
      vertex -29.1489 -41.3406 0
    endloop
  endfacet
  facet normal 0 0 -1
    outer loop
      vertex -29.5 -39.5 0
      vertex -29.1489 -41.3406 0
      vertex -29.3429 -40.7435 0
    endloop
  endfacet
  facet normal 0 0 -1
    outer loop
      vertex -29.5 -39.5 0
      vertex -29.3429 -40.7435 0
      vertex -29.4606 -40.1267 0
    endloop
  endfacet
  facet normal 0 0 -1
    outer loop
      vertex -2.10729 13.1086 0
      vertex -29.5 32.5 0
      vertex -1.62221 14.6016 0
    endloop
  endfacet
  facet normal 0 0 -1
    outer loop
      vertex 4.67776 21.3103 0
      vertex -29.5 32.5 0
      vertex 18.75 32.5 0
    endloop
  endfacet
  facet normal 0 0 -1
    outer loop
      vertex 0.887892 18.5568 0
      vertex -29.5 32.5 0
      vertex 2.0322 19.6314 0
    endloop
  endfacet
  facet normal 0 0 -1
    outer loop
      vertex -0.112712 17.3473 0
      vertex -29.5 32.5 0
      vertex 0.887892 18.5568 0
    endloop
  endfacet
  facet normal 0 0 -1
    outer loop
      vertex -0.953833 16.0219 0
      vertex -29.5 32.5 0
      vertex -0.112712 17.3473 0
    endloop
  endfacet
  facet normal 0 0 -1
    outer loop
      vertex -1.62221 14.6016 0
      vertex -29.5 32.5 0
      vertex -0.953833 16.0219 0
    endloop
  endfacet
  facet normal 0 0 -1
    outer loop
      vertex 26.6289 -44.0241 0
      vertex 29.5 -39.5 0
      vertex 29.4606 -40.1267 0
    endloop
  endfacet
  facet normal 0 0 -1
    outer loop
      vertex 26.6289 -44.0241 0
      vertex 29.4606 -40.1267 0
      vertex 29.3429 -40.7435 0
    endloop
  endfacet
  facet normal 0 0 -1
    outer loop
      vertex 26.6289 -44.0241 0
      vertex 29.3429 -40.7435 0
      vertex 29.1489 -41.3406 0
    endloop
  endfacet
  facet normal 0 0 -1
    outer loop
      vertex 26.6289 -44.0241 0
      vertex 29.1489 -41.3406 0
      vertex 28.8815 -41.9088 0
    endloop
  endfacet
  facet normal 0 0 -1
    outer loop
      vertex 26.6289 -44.0241 0
      vertex 28.8815 -41.9088 0
      vertex 28.5451 -42.4389 0
    endloop
  endfacet
  facet normal 0 0 -1
    outer loop
      vertex 26.6289 -44.0241 0
      vertex 28.5451 -42.4389 0
      vertex 28.1448 -42.9227 0
    endloop
  endfacet
  facet normal 0 0 -1
    outer loop
      vertex 26.6289 -44.0241 0
      vertex 28.1448 -42.9227 0
      vertex 27.6871 -43.3526 0
    endloop
  endfacet
  facet normal 0 0 -1
    outer loop
      vertex 26.6289 -44.0241 0
      vertex 27.6871 -43.3526 0
      vertex 27.1791 -43.7216 0
    endloop
  endfacet
  facet normal 0 0 -1
    outer loop
      vertex 26.0451 -44.2553 0
      vertex 29.5 -39.5 0
      vertex 26.6289 -44.0241 0
    endloop
  endfacet
  facet normal 0 0 -1
    outer loop
      vertex 29.5 -39.5 0
      vertex 26.25 25 0
      vertex 29.5 28 0
    endloop
  endfacet
  facet normal -0 0 -1
    outer loop
      vertex 29.5 28 0
      vertex 26.25 25 0
      vertex 26.25 28 0
    endloop
  endfacet
  facet normal 0 0 1
    outer loop
      vertex 12.3423 22.2786 3
      vertex 18.75 25 3
      vertex 18.75 32.5 3
    endloop
  endfacet
  facet normal 0 0 1
    outer loop
      vertex 18.75 25 3
      vertex 16.6978 20.5541 3
      vertex 17.9678 19.6314 3
    endloop
  endfacet
  facet normal 0 0 1
    outer loop
      vertex 18.75 25 3
      vertex 15.3222 21.3103 3
      vertex 16.6978 20.5541 3
    endloop
  endfacet
  facet normal 0 0 1
    outer loop
      vertex 18.75 25 3
      vertex 13.8627 21.8882 3
      vertex 15.3222 21.3103 3
    endloop
  endfacet
  facet normal 0 0 1
    outer loop
      vertex 18.75 25 3
      vertex 12.3423 22.2786 3
      vertex 13.8627 21.8882 3
    endloop
  endfacet
  facet normal 0 0 1
    outer loop
      vertex 18.75 32.5 3
      vertex 10.7849 22.4753 3
      vertex 12.3423 22.2786 3
    endloop
  endfacet
  facet normal 0 0 1
    outer loop
      vertex 18.75 32.5 3
      vertex 9.21512 22.4753 3
      vertex 10.7849 22.4753 3
    endloop
  endfacet
  facet normal 0 0 1
    outer loop
      vertex 18.75 32.5 3
      vertex 7.65773 22.2786 3
      vertex 9.21512 22.4753 3
    endloop
  endfacet
  facet normal 0 0 1
    outer loop
      vertex 18.75 32.5 3
      vertex 6.13729 21.8882 3
      vertex 7.65773 22.2786 3
    endloop
  endfacet
  facet normal 0 0 1
    outer loop
      vertex 18.75 32.5 3
      vertex 4.67776 21.3103 3
      vertex 6.13729 21.8882 3
    endloop
  endfacet
  facet normal -0 0 1
    outer loop
      vertex -29.5 32.5 3
      vertex 4.67776 21.3103 3
      vertex 18.75 32.5 3
    endloop
  endfacet
  facet normal 0 0 1
    outer loop
      vertex 4.67776 21.3103 3
      vertex -29.5 32.5 3
      vertex 3.30217 20.5541 3
    endloop
  endfacet
  facet normal 0 0 1
    outer loop
      vertex -2.5 10 3
      vertex -2.71819 9.57234 3
      vertex -2.5 9.49292 3
    endloop
  endfacet
  facet normal 0 0 1
    outer loop
      vertex -2.40143 11.5667 3
      vertex -2.71819 9.57234 3
      vertex -2.5 10 3
    endloop
  endfacet
  facet normal 0 0 1
    outer loop
      vertex -29.5 32.5 3
      vertex -2.71819 9.57234 3
      vertex -2.40143 11.5667 3
    endloop
  endfacet
  facet normal 0 0 1
    outer loop
      vertex -29.5 32.5 3
      vertex -2.40143 11.5667 3
      vertex -2.10729 13.1086 3
    endloop
  endfacet
  facet normal 0 0 1
    outer loop
      vertex -29.5 32.5 3
      vertex -2.10729 13.1086 3
      vertex -1.62221 14.6016 3
    endloop
  endfacet
  facet normal 0 0 1
    outer loop
      vertex -2.71819 9.57234 3
      vertex -29.5 -39.5 3
      vertex -22.3953 -44.4901 3
    endloop
  endfacet
  facet normal 0 0 1
    outer loop
      vertex -22.3953 -44.4901 3
      vertex -29.5 -39.5 3
      vertex -24.814 -44.4901 3
    endloop
  endfacet
  facet normal 0 0 1
    outer loop
      vertex -24.814 -44.4901 3
      vertex -29.5 -39.5 3
      vertex -25.4369 -44.4114 3
    endloop
  endfacet
  facet normal 0 0 1
    outer loop
      vertex -25.4369 -44.4114 3
      vertex -29.5 -39.5 3
      vertex -26.0451 -44.2553 3
    endloop
  endfacet
  facet normal 0 0 1
    outer loop
      vertex -26.0451 -44.2553 3
      vertex -29.5 -39.5 3
      vertex -26.6289 -44.0241 3
    endloop
  endfacet
  facet normal 0 0 1
    outer loop
      vertex -26.6289 -44.0241 3
      vertex -29.5 -39.5 3
      vertex -27.1791 -43.7216 3
    endloop
  endfacet
  facet normal 0 0 1
    outer loop
      vertex -27.1791 -43.7216 3
      vertex -29.5 -39.5 3
      vertex -27.6871 -43.3526 3
    endloop
  endfacet
  facet normal 0 0 1
    outer loop
      vertex -27.6871 -43.3526 3
      vertex -29.5 -39.5 3
      vertex -28.1448 -42.9227 3
    endloop
  endfacet
  facet normal 0 0 1
    outer loop
      vertex -29.5 32.5 3
      vertex -1.62221 14.6016 3
      vertex -0.953833 16.0219 3
    endloop
  endfacet
  facet normal 0 0 1
    outer loop
      vertex -28.1448 -42.9227 3
      vertex -29.5 -39.5 3
      vertex -28.5451 -42.4389 3
    endloop
  endfacet
  facet normal 0 0 1
    outer loop
      vertex -28.5451 -42.4389 3
      vertex -29.5 -39.5 3
      vertex -28.8815 -41.9088 3
    endloop
  endfacet
  facet normal 0 0 1
    outer loop
      vertex -28.8815 -41.9088 3
      vertex -29.5 -39.5 3
      vertex -29.1489 -41.3406 3
    endloop
  endfacet
  facet normal 0 0 1
    outer loop
      vertex -29.1489 -41.3406 3
      vertex -29.5 -39.5 3
      vertex -29.3429 -40.7435 3
    endloop
  endfacet
  facet normal 0 0 1
    outer loop
      vertex 3.30217 20.5541 3
      vertex -29.5 32.5 3
      vertex 2.0322 19.6314 3
    endloop
  endfacet
  facet normal 0 0 1
    outer loop
      vertex -29.5 32.5 3
      vertex 0.887892 18.5568 3
      vertex 2.0322 19.6314 3
    endloop
  endfacet
  facet normal 0 0 1
    outer loop
      vertex -29.5 32.5 3
      vertex -0.112712 17.3473 3
      vertex 0.887892 18.5568 3
    endloop
  endfacet
  facet normal 0 0 1
    outer loop
      vertex -29.5 32.5 3
      vertex -0.953833 16.0219 3
      vertex -0.112712 17.3473 3
    endloop
  endfacet
  facet normal 0 0 1
    outer loop
      vertex -2.71819 9.57234 3
      vertex -29.5 32.5 3
      vertex -29.5 -39.5 3
    endloop
  endfacet
  facet normal 0 0 1
    outer loop
      vertex -29.3429 -40.7435 3
      vertex -29.5 -39.5 3
      vertex -29.4606 -40.1267 3
    endloop
  endfacet
  facet normal -0 0 1
    outer loop
      vertex 22.5 10 3
      vertex 29.5 -39.5 3
      vertex 29.5 28 3
    endloop
  endfacet
  facet normal 0 0 1
    outer loop
      vertex 22.5 -44.4901 3
      vertex 29.5 -39.5 3
      vertex 22.5 10 3
    endloop
  endfacet
  facet normal 0 -0 1
    outer loop
      vertex 24.814 -44.4901 3
      vertex 29.5 -39.5 3
      vertex 22.5 -44.4901 3
    endloop
  endfacet
  facet normal 0 0 1
    outer loop
      vertex 29.5 -39.5 3
      vertex 24.814 -44.4901 3
      vertex 29.4606 -40.1267 3
    endloop
  endfacet
  facet normal 0 0 1
    outer loop
      vertex 29.4606 -40.1267 3
      vertex 24.814 -44.4901 3
      vertex 29.3429 -40.7435 3
    endloop
  endfacet
  facet normal 0 0 1
    outer loop
      vertex 29.3429 -40.7435 3
      vertex 24.814 -44.4901 3
      vertex 29.1489 -41.3406 3
    endloop
  endfacet
  facet normal 0 0 1
    outer loop
      vertex 29.1489 -41.3406 3
      vertex 24.814 -44.4901 3
      vertex 28.8815 -41.9088 3
    endloop
  endfacet
  facet normal 0 0 1
    outer loop
      vertex 28.8815 -41.9088 3
      vertex 24.814 -44.4901 3
      vertex 28.5451 -42.4389 3
    endloop
  endfacet
  facet normal 0 0 1
    outer loop
      vertex 28.5451 -42.4389 3
      vertex 24.814 -44.4901 3
      vertex 28.1448 -42.9227 3
    endloop
  endfacet
  facet normal 0 0 1
    outer loop
      vertex 26.25 25 3
      vertex 29.5 28 3
      vertex 26.25 28 3
    endloop
  endfacet
  facet normal 0 0 1
    outer loop
      vertex 22.4014 11.5667 3
      vertex 29.5 28 3
      vertex 26.25 25 3
    endloop
  endfacet
  facet normal 0 0 1
    outer loop
      vertex 28.1448 -42.9227 3
      vertex 24.814 -44.4901 3
      vertex 27.6871 -43.3526 3
    endloop
  endfacet
  facet normal 0 0 1
    outer loop
      vertex 27.6871 -43.3526 3
      vertex 24.814 -44.4901 3
      vertex 27.1791 -43.7216 3
    endloop
  endfacet
  facet normal 0 0 1
    outer loop
      vertex 27.1791 -43.7216 3
      vertex 24.814 -44.4901 3
      vertex 26.6289 -44.0241 3
    endloop
  endfacet
  facet normal 0 0 1
    outer loop
      vertex 26.6289 -44.0241 3
      vertex 24.814 -44.4901 3
      vertex 26.0451 -44.2553 3
    endloop
  endfacet
  facet normal 0 0 1
    outer loop
      vertex 29.5 28 3
      vertex 22.4014 11.5667 3
      vertex 22.5 10 3
    endloop
  endfacet
  facet normal 0 0 1
    outer loop
      vertex 26.25 25 3
      vertex 22.1073 13.1086 3
      vertex 22.4014 11.5667 3
    endloop
  endfacet
  facet normal 0 0 1
    outer loop
      vertex 26.25 25 3
      vertex 21.6222 14.6016 3
      vertex 22.1073 13.1086 3
    endloop
  endfacet
  facet normal 0 0 1
    outer loop
      vertex 26.25 25 3
      vertex 20.9538 16.0219 3
      vertex 21.6222 14.6016 3
    endloop
  endfacet
  facet normal 0 0 1
    outer loop
      vertex 26.25 25 3
      vertex 20.1127 17.3473 3
      vertex 20.9538 16.0219 3
    endloop
  endfacet
  facet normal 0 0 1
    outer loop
      vertex 26.25 25 3
      vertex 19.1121 18.5568 3
      vertex 20.1127 17.3473 3
    endloop
  endfacet
  facet normal -0 0 1
    outer loop
      vertex 18.75 25 3
      vertex 19.1121 18.5568 3
      vertex 26.25 25 3
    endloop
  endfacet
  facet normal 0 0 1
    outer loop
      vertex 19.1121 18.5568 3
      vertex 18.75 25 3
      vertex 17.9678 19.6314 3
    endloop
  endfacet
  facet normal 0 0 1
    outer loop
      vertex 26.0451 -44.2553 3
      vertex 24.814 -44.4901 3
      vertex 25.4369 -44.4114 3
    endloop
  endfacet
  facet normal 0.587791 -0.809013 0
    outer loop
      vertex 2.0322 19.6314 0
      vertex 3.30217 20.5541 3
      vertex 2.0322 19.6314 3
    endloop
  endfacet
  facet normal 0.587791 -0.809013 0
    outer loop
      vertex 3.30217 20.5541 3
      vertex 2.0322 19.6314 0
      vertex 3.30217 20.5541 0
    endloop
  endfacet
  facet normal 0.368142 -0.92977 0
    outer loop
      vertex 4.67776 21.3103 0
      vertex 6.13729 21.8882 3
      vertex 4.67776 21.3103 3
    endloop
  endfacet
  facet normal 0.368142 -0.92977 0
    outer loop
      vertex 6.13729 21.8882 3
      vertex 4.67776 21.3103 0
      vertex 6.13729 21.8882 0
    endloop
  endfacet
  facet normal -0.951057 -0.309014 0
    outer loop
      vertex 22.1073 13.1086 0
      vertex 21.6222 14.6016 3
      vertex 21.6222 14.6016 0
    endloop
  endfacet
  facet normal -0.951057 -0.309014 0
    outer loop
      vertex 21.6222 14.6016 3
      vertex 22.1073 13.1086 0
      vertex 22.1073 13.1086 3
    endloop
  endfacet
  facet normal -0.770509 -0.63743 0
    outer loop
      vertex 20.1127 17.3473 0
      vertex 19.1121 18.5568 3
      vertex 19.1121 18.5568 0
    endloop
  endfacet
  facet normal -0.770509 -0.63743 0
    outer loop
      vertex 19.1121 18.5568 3
      vertex 20.1127 17.3473 0
      vertex 20.1127 17.3473 3
    endloop
  endfacet
  facet normal 0 -1 0
    outer loop
      vertex 9.21512 22.4753 0
      vertex 10.7849 22.4753 3
      vertex 9.21512 22.4753 3
    endloop
  endfacet
  facet normal 0 -1 -0
    outer loop
      vertex 10.7849 22.4753 3
      vertex 9.21512 22.4753 0
      vertex 10.7849 22.4753 0
    endloop
  endfacet
  facet normal -0.368148 -0.929767 0
    outer loop
      vertex 13.8627 21.8882 0
      vertex 15.3222 21.3103 3
      vertex 13.8627 21.8882 3
    endloop
  endfacet
  facet normal -0.368148 -0.929767 -0
    outer loop
      vertex 15.3222 21.3103 3
      vertex 13.8627 21.8882 0
      vertex 15.3222 21.3103 0
    endloop
  endfacet
  facet normal -0.587781 -0.80902 0
    outer loop
      vertex 16.6978 20.5541 0
      vertex 17.9678 19.6314 3
      vertex 16.6978 20.5541 3
    endloop
  endfacet
  facet normal -0.587781 -0.80902 -0
    outer loop
      vertex 17.9678 19.6314 3
      vertex 16.6978 20.5541 0
      vertex 17.9678 19.6314 0
    endloop
  endfacet
  facet normal 0.904819 -0.425797 0
    outer loop
      vertex -1.62221 14.6016 3
      vertex -0.953833 16.0219 0
      vertex -0.953833 16.0219 3
    endloop
  endfacet
  facet normal 0.904819 -0.425797 0
    outer loop
      vertex -0.953833 16.0219 0
      vertex -1.62221 14.6016 3
      vertex -1.62221 14.6016 0
    endloop
  endfacet
  facet normal 0.844329 -0.535825 0
    outer loop
      vertex -0.953833 16.0219 3
      vertex -0.112712 17.3473 0
      vertex -0.112712 17.3473 3
    endloop
  endfacet
  facet normal 0.844329 -0.535825 0
    outer loop
      vertex -0.112712 17.3473 0
      vertex -0.953833 16.0219 3
      vertex -0.953833 16.0219 0
    endloop
  endfacet
  facet normal 0.982286 -0.187386 0
    outer loop
      vertex -2.40143 11.5667 3
      vertex -2.10729 13.1086 0
      vertex -2.10729 13.1086 3
    endloop
  endfacet
  facet normal 0.982286 -0.187386 0
    outer loop
      vertex -2.10729 13.1086 0
      vertex -2.40143 11.5667 3
      vertex -2.40143 11.5667 0
    endloop
  endfacet
  facet normal 0.998027 -0.0627915 0
    outer loop
      vertex -2.5 10 3
      vertex -2.40143 11.5667 0
      vertex -2.40143 11.5667 3
    endloop
  endfacet
  facet normal 0.998027 -0.0627915 0
    outer loop
      vertex -2.40143 11.5667 0
      vertex -2.5 10 3
      vertex -2.5 10 0
    endloop
  endfacet
  facet normal 0.684555 -0.728961 0
    outer loop
      vertex 0.887892 18.5568 0
      vertex 2.0322 19.6314 3
      vertex 0.887892 18.5568 3
    endloop
  endfacet
  facet normal 0.684555 -0.728961 0
    outer loop
      vertex 2.0322 19.6314 3
      vertex 0.887892 18.5568 0
      vertex 2.0322 19.6314 0
    endloop
  endfacet
  facet normal 0.2487 -0.96858 0
    outer loop
      vertex 6.13729 21.8882 0
      vertex 7.65773 22.2786 3
      vertex 6.13729 21.8882 3
    endloop
  endfacet
  facet normal 0.2487 -0.96858 0
    outer loop
      vertex 7.65773 22.2786 3
      vertex 6.13729 21.8882 0
      vertex 7.65773 22.2786 0
    endloop
  endfacet
  facet normal 1 -0 0
    outer loop
      vertex -2.5 9.49292 3
      vertex -2.5 10 0
      vertex -2.5 10 3
    endloop
  endfacet
  facet normal 1 0 0
    outer loop
      vertex -2.5 10 0
      vertex -2.5 9.49292 3
      vertex -2.5 9.49292 0
    endloop
  endfacet
  facet normal -1 0 0
    outer loop
      vertex 22.5 -44.4901 0
      vertex 22.5 10 3
      vertex 22.5 10 0
    endloop
  endfacet
  facet normal -1 -0 0
    outer loop
      vertex 22.5 10 3
      vertex 22.5 -44.4901 0
      vertex 22.5 -44.4901 3
    endloop
  endfacet
  facet normal 0.939693 -0.34202 0
    outer loop
      vertex -22.3953 -44.4901 3
      vertex -2.71819 9.57234 0
      vertex -2.71819 9.57234 3
    endloop
  endfacet
  facet normal 0.939693 -0.34202 0
    outer loop
      vertex -2.71819 9.57234 0
      vertex -22.3953 -44.4901 3
      vertex -22.3953 -44.4901 0
    endloop
  endfacet
  facet normal -0.34204 -0.939685 0
    outer loop
      vertex -2.71819 9.57234 0
      vertex -2.5 9.49292 3
      vertex -2.71819 9.57234 3
    endloop
  endfacet
  facet normal -0.34204 -0.939685 -0
    outer loop
      vertex -2.5 9.49292 3
      vertex -2.71819 9.57234 0
      vertex -2.5 9.49292 0
    endloop
  endfacet
  facet normal 0 1 -0
    outer loop
      vertex 18.75 32.5 0
      vertex -29.5 32.5 3
      vertex 18.75 32.5 3
    endloop
  endfacet
  facet normal 0 1 0
    outer loop
      vertex -29.5 32.5 3
      vertex 18.75 32.5 0
      vertex -29.5 32.5 0
    endloop
  endfacet
  facet normal 1 -0 0
    outer loop
      vertex 18.75 25 3
      vertex 18.75 32.5 0
      vertex 18.75 32.5 3
    endloop
  endfacet
  facet normal 1 0 0
    outer loop
      vertex 18.75 32.5 0
      vertex 18.75 25 3
      vertex 18.75 25 0
    endloop
  endfacet
  facet normal -1 0 0
    outer loop
      vertex 26.25 25 0
      vertex 26.25 28 3
      vertex 26.25 28 0
    endloop
  endfacet
  facet normal -1 -0 0
    outer loop
      vertex 26.25 28 3
      vertex 26.25 25 0
      vertex 26.25 25 3
    endloop
  endfacet
  facet normal 0 1 -0
    outer loop
      vertex 26.25 25 0
      vertex 18.75 25 3
      vertex 26.25 25 3
    endloop
  endfacet
  facet normal 0 1 0
    outer loop
      vertex 18.75 25 3
      vertex 26.25 25 0
      vertex 18.75 25 0
    endloop
  endfacet
  facet normal 0 1 -0
    outer loop
      vertex 29.5 28 0
      vertex 26.25 28 3
      vertex 29.5 28 3
    endloop
  endfacet
  facet normal 0 1 0
    outer loop
      vertex 26.25 28 3
      vertex 29.5 28 0
      vertex 26.25 28 0
    endloop
  endfacet
  facet normal -0.125348 -0.992113 0
    outer loop
      vertex -25.4369 -44.4114 0
      vertex -24.814 -44.4901 3
      vertex -25.4369 -44.4114 3
    endloop
  endfacet
  facet normal -0.125348 -0.992113 -0
    outer loop
      vertex -24.814 -44.4901 3
      vertex -25.4369 -44.4114 0
      vertex -24.814 -44.4901 0
    endloop
  endfacet
  facet normal 1 -0 0
    outer loop
      vertex 29.5 -39.5 3
      vertex 29.5 28 0
      vertex 29.5 28 3
    endloop
  endfacet
  facet normal 1 0 0
    outer loop
      vertex 29.5 28 0
      vertex 29.5 -39.5 3
      vertex 29.5 -39.5 0
    endloop
  endfacet
  facet normal 0 -1 0
    outer loop
      vertex -24.814 -44.4901 0
      vertex -22.3953 -44.4901 3
      vertex -24.814 -44.4901 3
    endloop
  endfacet
  facet normal 0 -1 -0
    outer loop
      vertex -22.3953 -44.4901 3
      vertex -24.814 -44.4901 0
      vertex -22.3953 -44.4901 0
    endloop
  endfacet
  facet normal 0 -1 0
    outer loop
      vertex 22.5 -44.4901 0
      vertex 24.814 -44.4901 3
      vertex 22.5 -44.4901 3
    endloop
  endfacet
  facet normal 0 -1 -0
    outer loop
      vertex 24.814 -44.4901 3
      vertex 22.5 -44.4901 0
      vertex 24.814 -44.4901 0
    endloop
  endfacet
  facet normal -0.844336 -0.535814 0
    outer loop
      vertex -28.5451 -42.4389 0
      vertex -28.8815 -41.9088 3
      vertex -28.8815 -41.9088 0
    endloop
  endfacet
  facet normal -0.844336 -0.535814 0
    outer loop
      vertex -28.8815 -41.9088 3
      vertex -28.5451 -42.4389 0
      vertex -28.5451 -42.4389 3
    endloop
  endfacet
  facet normal -1 0 0
    outer loop
      vertex -29.5 -39.5 0
      vertex -29.5 32.5 3
      vertex -29.5 32.5 0
    endloop
  endfacet
  facet normal -1 -0 0
    outer loop
      vertex -29.5 32.5 3
      vertex -29.5 -39.5 0
      vertex -29.5 -39.5 3
    endloop
  endfacet
  facet normal -0.368203 -0.929745 0
    outer loop
      vertex -26.6289 -44.0241 0
      vertex -26.0451 -44.2553 3
      vertex -26.6289 -44.0241 3
    endloop
  endfacet
  facet normal -0.368203 -0.929745 -0
    outer loop
      vertex -26.0451 -44.2553 3
      vertex -26.6289 -44.0241 0
      vertex -26.0451 -44.2553 0
    endloop
  endfacet
  facet normal -0.684624 -0.728896 0
    outer loop
      vertex -28.1448 -42.9227 0
      vertex -27.6871 -43.3526 3
      vertex -28.1448 -42.9227 3
    endloop
  endfacet
  facet normal -0.684624 -0.728896 -0
    outer loop
      vertex -27.6871 -43.3526 3
      vertex -28.1448 -42.9227 0
      vertex -27.6871 -43.3526 0
    endloop
  endfacet
  facet normal 0.844336 -0.535814 0
    outer loop
      vertex 28.5451 -42.4389 3
      vertex 28.8815 -41.9088 0
      vertex 28.8815 -41.9088 3
    endloop
  endfacet
  facet normal 0.844336 -0.535814 0
    outer loop
      vertex 28.8815 -41.9088 0
      vertex 28.5451 -42.4389 3
      vertex 28.5451 -42.4389 0
    endloop
  endfacet
  facet normal 0.99803 -0.0627451 0
    outer loop
      vertex 29.4606 -40.1267 3
      vertex 29.5 -39.5 0
      vertex 29.5 -39.5 3
    endloop
  endfacet
  facet normal 0.99803 -0.0627451 0
    outer loop
      vertex 29.5 -39.5 0
      vertex 29.4606 -40.1267 3
      vertex 29.4606 -40.1267 0
    endloop
  endfacet
  facet normal 0.684624 -0.728896 0
    outer loop
      vertex 27.6871 -43.3526 0
      vertex 28.1448 -42.9227 3
      vertex 27.6871 -43.3526 3
    endloop
  endfacet
  facet normal 0.684624 -0.728896 0
    outer loop
      vertex 28.1448 -42.9227 3
      vertex 27.6871 -43.3526 0
      vertex 28.1448 -42.9227 0
    endloop
  endfacet
  facet normal -0.587698 -0.80908 0
    outer loop
      vertex -27.6871 -43.3526 0
      vertex -27.1791 -43.7216 3
      vertex -27.6871 -43.3526 3
    endloop
  endfacet
  facet normal -0.587698 -0.80908 -0
    outer loop
      vertex -27.1791 -43.7216 3
      vertex -27.6871 -43.3526 0
      vertex -27.1791 -43.7216 0
    endloop
  endfacet
  facet normal -0.248601 -0.968606 0
    outer loop
      vertex -26.0451 -44.2553 0
      vertex -25.4369 -44.4114 3
      vertex -26.0451 -44.2553 3
    endloop
  endfacet
  facet normal -0.248601 -0.968606 -0
    outer loop
      vertex -25.4369 -44.4114 3
      vertex -26.0451 -44.2553 0
      vertex -25.4369 -44.4114 0
    endloop
  endfacet
  facet normal -0.99803 -0.0627451 0
    outer loop
      vertex -29.4606 -40.1267 0
      vertex -29.5 -39.5 3
      vertex -29.5 -39.5 0
    endloop
  endfacet
  facet normal -0.99803 -0.0627451 0
    outer loop
      vertex -29.5 -39.5 3
      vertex -29.4606 -40.1267 0
      vertex -29.4606 -40.1267 3
    endloop
  endfacet
  facet normal -0.951061 -0.309003 0
    outer loop
      vertex -29.1489 -41.3406 0
      vertex -29.3429 -40.7435 3
      vertex -29.3429 -40.7435 0
    endloop
  endfacet
  facet normal -0.951061 -0.309003 0
    outer loop
      vertex -29.3429 -40.7435 3
      vertex -29.1489 -41.3406 0
      vertex -29.1489 -41.3406 3
    endloop
  endfacet
  facet normal -0.904811 -0.425812 0
    outer loop
      vertex -28.8815 -41.9088 0
      vertex -29.1489 -41.3406 3
      vertex -29.1489 -41.3406 0
    endloop
  endfacet
  facet normal -0.904811 -0.425812 0
    outer loop
      vertex -29.1489 -41.3406 3
      vertex -28.8815 -41.9088 0
      vertex -28.8815 -41.9088 3
    endloop
  endfacet
  facet normal -0.770462 -0.637486 0
    outer loop
      vertex -28.1448 -42.9227 0
      vertex -28.5451 -42.4389 3
      vertex -28.5451 -42.4389 0
    endloop
  endfacet
  facet normal -0.770462 -0.637486 0
    outer loop
      vertex -28.5451 -42.4389 3
      vertex -28.1448 -42.9227 0
      vertex -28.1448 -42.9227 3
    endloop
  endfacet
  facet normal 0.982276 -0.187441 0
    outer loop
      vertex 29.3429 -40.7435 3
      vertex 29.4606 -40.1267 0
      vertex 29.4606 -40.1267 3
    endloop
  endfacet
  facet normal 0.982276 -0.187441 0
    outer loop
      vertex 29.4606 -40.1267 0
      vertex 29.3429 -40.7435 3
      vertex 29.3429 -40.7435 0
    endloop
  endfacet
  facet normal 0.770462 -0.637486 0
    outer loop
      vertex 28.1448 -42.9227 3
      vertex 28.5451 -42.4389 0
      vertex 28.5451 -42.4389 3
    endloop
  endfacet
  facet normal 0.770462 -0.637486 0
    outer loop
      vertex 28.5451 -42.4389 0
      vertex 28.1448 -42.9227 3
      vertex 28.1448 -42.9227 0
    endloop
  endfacet
  facet normal 0.368203 -0.929745 0
    outer loop
      vertex 26.0451 -44.2553 0
      vertex 26.6289 -44.0241 3
      vertex 26.0451 -44.2553 3
    endloop
  endfacet
  facet normal 0.368203 -0.929745 0
    outer loop
      vertex 26.6289 -44.0241 3
      vertex 26.0451 -44.2553 0
      vertex 26.6289 -44.0241 0
    endloop
  endfacet
  facet normal 0.125348 -0.992113 0
    outer loop
      vertex 24.814 -44.4901 0
      vertex 25.4369 -44.4114 3
      vertex 24.814 -44.4901 3
    endloop
  endfacet
  facet normal 0.125348 -0.992113 0
    outer loop
      vertex 25.4369 -44.4114 3
      vertex 24.814 -44.4901 0
      vertex 25.4369 -44.4114 0
    endloop
  endfacet
  facet normal -0.481784 -0.87629 0
    outer loop
      vertex -27.1791 -43.7216 0
      vertex -26.6289 -44.0241 3
      vertex -27.1791 -43.7216 3
    endloop
  endfacet
  facet normal -0.481784 -0.87629 -0
    outer loop
      vertex -26.6289 -44.0241 3
      vertex -27.1791 -43.7216 0
      vertex -26.6289 -44.0241 0
    endloop
  endfacet
  facet normal -0.982276 -0.187441 0
    outer loop
      vertex -29.3429 -40.7435 0
      vertex -29.4606 -40.1267 3
      vertex -29.4606 -40.1267 0
    endloop
  endfacet
  facet normal -0.982276 -0.187441 0
    outer loop
      vertex -29.4606 -40.1267 3
      vertex -29.3429 -40.7435 0
      vertex -29.3429 -40.7435 3
    endloop
  endfacet
  facet normal 0.951061 -0.309003 0
    outer loop
      vertex 29.1489 -41.3406 3
      vertex 29.3429 -40.7435 0
      vertex 29.3429 -40.7435 3
    endloop
  endfacet
  facet normal 0.951061 -0.309003 0
    outer loop
      vertex 29.3429 -40.7435 0
      vertex 29.1489 -41.3406 3
      vertex 29.1489 -41.3406 0
    endloop
  endfacet
  facet normal 0.587698 -0.80908 0
    outer loop
      vertex 27.1791 -43.7216 0
      vertex 27.6871 -43.3526 3
      vertex 27.1791 -43.7216 3
    endloop
  endfacet
  facet normal 0.587698 -0.80908 0
    outer loop
      vertex 27.6871 -43.3526 3
      vertex 27.1791 -43.7216 0
      vertex 27.6871 -43.3526 0
    endloop
  endfacet
  facet normal 0.481784 -0.87629 0
    outer loop
      vertex 26.6289 -44.0241 0
      vertex 27.1791 -43.7216 3
      vertex 26.6289 -44.0241 3
    endloop
  endfacet
  facet normal 0.481784 -0.87629 0
    outer loop
      vertex 27.1791 -43.7216 3
      vertex 26.6289 -44.0241 0
      vertex 27.1791 -43.7216 0
    endloop
  endfacet
  facet normal 0.248601 -0.968606 0
    outer loop
      vertex 25.4369 -44.4114 0
      vertex 26.0451 -44.2553 3
      vertex 25.4369 -44.4114 3
    endloop
  endfacet
  facet normal 0.248601 -0.968606 0
    outer loop
      vertex 26.0451 -44.2553 3
      vertex 25.4369 -44.4114 0
      vertex 26.0451 -44.2553 0
    endloop
  endfacet
  facet normal 0.904811 -0.425812 0
    outer loop
      vertex 28.8815 -41.9088 3
      vertex 29.1489 -41.3406 0
      vertex 29.1489 -41.3406 3
    endloop
  endfacet
  facet normal 0.904811 -0.425812 0
    outer loop
      vertex 29.1489 -41.3406 0
      vertex 28.8815 -41.9088 3
      vertex 28.8815 -41.9088 0
    endloop
  endfacet
endsolid OpenSCAD_Model
